<?xml version="1.0" standalone="no"?>
<!DOCTYPE svg PUBLIC "-//W3C//DTD SVG 20010904//EN"
 "http://www.w3.org/TR/2001/REC-SVG-20010904/DTD/svg10.dtd">
<svg version="1.0" xmlns="http://www.w3.org/2000/svg"
 width="1280.000000pt" height="1280.000000pt" viewBox="0 0 1280.000000 1280.000000"
 preserveAspectRatio="xMidYMid meet">
<metadata>
Created by potrace 1.14, written by Peter Selinger 2001-2017
</metadata>
<g transform="translate(0.000000,1280.000000) scale(0.100000,-0.100000)"
fill="#000000" stroke="none">
<path d="M5958 10203 c-45 -7 -75 -53 -83 -125 -3 -35 -5 -335 -3 -668 3 -557
4 -608 20 -633 34 -51 40 -52 375 -52 299 0 313 1 339 21 15 11 31 32 35 47 6
22 -15 400 -36 655 l-6 72 586 0 585 0 -2 -2237 -3 -2238 -385 -5 c-285 -4
-391 -8 -407 -18 -38 -21 -44 -75 -41 -340 3 -264 6 -279 55 -301 34 -16 2503
-15 2536 0 49 22 52 43 52 323 0 236 -2 265 -18 289 -10 16 -29 32 -43 37 -15
6 -186 10 -400 10 l-374 0 0 2240 0 2240 580 0 c457 0 580 -3 580 -12 0 -7 -9
-143 -20 -303 -25 -367 -25 -416 -2 -445 27 -33 82 -39 357 -39 281 0 326 5
364 43 l26 26 0 669 c0 532 -3 673 -13 692 -31 58 141 54 -2342 55 -1257 1
-2297 -1 -2312 -3z"/>
<path d="M4895 8724 c-481 -49 -850 -159 -1214 -362 -801 -446 -1294 -1263
-1426 -2362 -39 -327 -39 -818 0 -1170 137 -1236 683 -2044 1639 -2426 232
-93 478 -154 786 -194 237 -32 712 -39 970 -15 427 39 870 142 1230 285 241
96 293 132 305 213 3 23 5 323 3 667 -2 485 -6 630 -16 647 -28 50 -48 53
-386 53 -176 0 -326 -4 -340 -10 -14 -5 -33 -21 -42 -36 -17 -25 -17 -42 0
-342 9 -175 19 -335 22 -357 l5 -40 -68 -44 c-345 -224 -1007 -312 -1543 -205
-164 33 -278 72 -425 144 -584 290 -925 899 -1032 1843 -22 195 -25 857 -5
1042 124 1123 603 1726 1461 1840 124 17 427 19 556 5 328 -38 734 -176 987
-337 l59 -38 -5 -80 c-3 -44 -11 -203 -17 -353 -12 -267 -12 -274 8 -300 38
-52 44 -52 380 -50 298 3 313 4 340 24 18 13 32 37 40 65 15 57 18 1201 3
1279 -17 89 -41 110 -238 208 -97 49 -225 107 -284 130 -331 128 -701 218
-1063 258 -132 14 -604 27 -690 18z"/>
</g>
</svg>
